{"title":"Conan The Barbarian 2011 TS XViD DTRG","uid":6624876,"size":1184035915,"categoryP":"video","categoryS":"movies","magnet":"?xt=urn:btih:7f39f2a5021f00bbe166f98afe50c38ffd3e6437&amp;dn=Conan+The+Barbarian+2011+TS+XViD+DTRG&amp;tr=udp%3A%2F%2Ftracker.openbittorrent.com%3A80&amp;tr=udp%3A%2F%2Fopen.demonii.com%3A1337&amp;tr=udp%3A%2F%2Ftracker.coppersurfer.tk%3A6969&amp;tr=udp%3A%2F%2Fexodus.desync.com%3A6969","seeders":1,"leechers":1,"uploader":"SAFCukO09","files":4,"time":1314121965,"description":"Format : AVI\nFormat/Info : Audio Video Interleave\nFile size : 1.10 GiB\nDuration : 1h 43mn\nOverall bit rate : 1 524 Kbps\nWriting application : VirtualDubMod 1.5.10.3 | www.virtualdub-fr.org || (build 2550/release)\nWriting library : VirtualDub build 32842/release\n\nVideo\nID : 0\nFormat : MPEG-4 Visual\nFormat profile : Advanced Simple@L5\nFormat settings, BVOP : 2\nFormat settings, QPel : No\nFormat settings, GMC : No warppoints\nFormat settings, Matrix : Default (H.263)\nMuxing mode : Packed bitstream\nCodec ID : XVID\nCodec ID/Hint : XviD\nDuration : 1h 43mn\nBit rate : 1 386 Kbps\nWidth : 672 pixels\nHeight : 282 pixels\nDisplay aspect ratio : 2.40:1\nFrame rate : 25.000 fps\nColor space : YUV\nChroma subsampling : 4:2:0\nBit depth : 8 bits\nScan type : Progressive\nCompression mode : Lossy\nBits/(Pixel*Frame) : 0.293\nStream size : 1 023 MiB (91%)\nWriting library : XviD 64\n\nAudio\nID : 1\nFormat : MPEG Audio\nFormat version : Version 1\nFormat profile : Layer 3\nMode : Joint stereo\nMode extension : MS Stereo\nCodec ID : 55\nCodec ID/Hint : MP3\nDuration : 1h 43mn\nBit rate mode : Constant\nBit rate : 128 Kbps\nChannel(s) : 2 channels\nSampling rate : 44.1 KHz\nCompression mode : Lossy\nStream size : 94.5 MiB (8%)\nAlignment : Split accross interleaves\nInterleave, duration : 40 ms (1.00 video frame)\nInterleave, preload duration : 500 ms\nWriting library : LAME3.98r\nEncoding settings : -m j -V 4 -q 2 -lowpass 17 -b 128\n\n\n\n\n\n\n &lt;a href=&quot;\nhttp://www.imdb.com/title/tt0816462/&quot; rel=&quot;nofollow&quot; target=&quot;_NEW&quot;&gt;\nhttp://www.imdb.com/title/tt0816462/&lt;/a&gt;\n\n\n\n\n\n\n\n\n\nUsers: (754 votes) 34 reviews | Critics: 37 reviews Metascore: 37/100 (based on 28 reviews from Metacritic.com)\n\n\nThe tale of Conan the Cimmerian and his adventures across the continent of Hyboria on a quest to avenge the murder of his father and the slaughter of his village.\n\nDirector: Marcus Nispel\nWriters: Thomas Dean Donnelly, Joshua Oppenheimer, and 2 more credits Ã‚Â»\nStars: Jason Momoa, Ron Perlman and Rose McGowan\n\n\n\n\n\n\n\n\n\n\n\n\n\n\n\n\n\n\n\n\n\n\nSource Used\n\n\nVideo ....Konan-varvar.2011.D.CAMRip.PROPER......Thanks\n\n\nAudio ....REVELATION ...............................Thanks\n\n\n\nSample included from a dark scene so check it out 1st\n\nBasically just Deinterlaced ,rbg colours, slight saturation ,slight levels filter,slightest smoother then muxed the line audio back to the vid\n\n\n\n\nEnjoy\n\n\n\n\n\nGreetz to IMAGiNE,Flawl3ss,DiLLoN,BDK,NOiR,TOXiC,THC,Ez,Rx,Boobyblue,TaRiQ786\n\n\n","torrent":{"xt":"urn:btih:7f39f2a5021f00bbe166f98afe50c38ffd3e6437","amp;dn":"Conan+The+Barbarian+2011+TS+XViD+DTRG","amp;tr":["udp%3A%2F%2Ftracker.openbittorrent.com%3A80","udp%3A%2F%2Fopen.demonii.com%3A1337","udp%3A%2F%2Ftracker.coppersurfer.tk%3A6969","udp%3A%2F%2Fexodus.desync.com%3A6969"],"infoHash":"7f39f2a5021f00bbe166f98afe50c38ffd3e6437","infoHashBuffer":{"type":"Buffer","data":[127,57,242,165,2,31,0,187,225,102,249,138,254,80,195,143,253,62,100,55]},"announce":[],"urlList":[]}}